<svg xmlns="http://www.w3.org/2000/svg" xmlns:xlink="http://www.w3.org/1999/xlink" viewBox="0 0 1917.57 177.17"><defs><style>.cls-1{fill:none;}.cls-2{isolation:isolate;}.cls-3{clip-path:url(#clip-path);}.cls-4{opacity:0.25;mix-blend-mode:multiply;}.cls-5{fill:#e8e9ea;}</style><clipPath id="clip-path"><rect id="_Rectangle_" data-name="&lt;Rectangle&gt;" class="cls-1" y="-14.13" width="1917.57" height="2390.49"/></clipPath></defs><title>bg-pattern</title><g class="cls-2"><g id="Layer_1" data-name="Layer 1"><g id="_Clip_Group_" data-name="&lt;Clip Group&gt;"><g class="cls-3"><g id="_Group_" data-name="&lt;Group&gt;" class="cls-4"><g id="_Group_2" data-name="&lt;Group&gt;"><g id="_Group_3" data-name="&lt;Group&gt;"><path id="_Compound_Path_" data-name="&lt;Compound Path&gt;" class="cls-5" d="M116.48,92.15a32.93,32.93,0,1,0,32.93,32.93A33,33,0,0,0,116.48,92.15Zm24.78,47.55-10.23,2L127,137l4.86-13.59,6.32-3.1,6.93,7.57A28.44,28.44,0,0,1,141.26,139.7Zm-39.39,2.16-9.14-.51a28.59,28.59,0,0,1-4.92-13.48l7-7.56,6.35,3.1,4.79,13.6Zm37.06-34.8-2,9.31-6.46,3.17-11.88-8.66v-8L127,98.29A29,29,0,0,1,138.93,107.06ZM106,98.27l8.47,4.57v8l-11.88,8.66-6.49-3.17-2-9.37A28.87,28.87,0,0,1,106,98.27Zm1.68,54.23-2.58-8.06,4.12-5h14.55l4,4.8-4,8.63a28.32,28.32,0,0,1-16.15-.41Z"/><g id="_Group_4" data-name="&lt;Group&gt;"><g id="_Group_5" data-name="&lt;Group&gt;"><path id="_Compound_Path_2" data-name="&lt;Compound Path&gt;" class="cls-5" d="M357.71,116.2c-.29-.08-.58-.13-.88-.19l-18.39-7.07h-.17c-.39,0-9.6-.6-16.37,10.69-3.89,6.48-5.4,7.24-6.86,7.95a10,10,0,0,0-3.73,2.92c-3,3.48-11.61,12.2-15.19,15.78a3,3,0,0,0,.59,4.79l10.72,6.47,2.57,4.3a3.08,3.08,0,0,0,1.82,1.45,3,3,0,0,0,2.93-.91l13.17-14,13,6.81a15.35,15.35,0,0,0,5.54,2.84c9.65,2.6,20-4.68,23.15-16.22s-2.2-23-11.86-25.65Zm-28.09,30.42,4.27-4.52a21.64,21.64,0,0,0,2.7,8.19Zm7.63-21.93a32.61,32.61,0,0,1-6.67,8.39,4.31,4.31,0,0,1-4.14.28l-5.19-2.47c-1.19-.56-1.22-1.55-.21-2.38a23.36,23.36,0,0,0,6.06-8.35,2.31,2.31,0,0,1,3.06-1.25l6.1,2.73a2.09,2.09,0,0,1,1,3Zm0,0"/><path id="_Compound_Path_3" data-name="&lt;Compound Path&gt;" class="cls-5" d="M295.75,151.13l2.27,4.2,11.28,6.79-2.23-4Zm0,0"/></g></g><g id="_Group_6" data-name="&lt;Group&gt;"><g id="_Group_7" data-name="&lt;Group&gt;"><path id="_Compound_Path_4" data-name="&lt;Compound Path&gt;" class="cls-5" d="M240.77,107.42a18.89,18.89,0,0,0-37.77,0,24.06,24.06,0,0,0,.84,5.58h0a53.14,53.14,0,0,0,2.78,7c2.4,5.33,5.13,11.38,5.13,20.82a39,39,0,0,1-4.13,17.62,2.16,2.16,0,0,0,1.91,3.17h24.71a2.15,2.15,0,0,0,1.9-3.17A39,39,0,0,1,232,140.83c0-9.44,2.73-15.49,5.14-20.82a53.14,53.14,0,0,0,2.78-7h0a24.64,24.64,0,0,0,.84-5.58ZM221.88,92.85a14.59,14.59,0,0,1,14.58,14.57A18,18,0,0,1,236,111a6.57,6.57,0,0,0-8.81.26c-2.65-5.55-6-10.78-9.61-11.91a4.94,4.94,0,0,0-4.35.61c-1.71,1.12-3.26,3.77-1.4,8.89h0c.51,1.59-.34,3.27-1.38,3.6-1.22.39-2.52-.74-2.81-2.25a16,16,0,0,1-.31-2.79,14.58,14.58,0,0,1,14.57-14.57Zm1.78,33.59c-.17-5.85-1.78-8.42-4-12l-.3-.48c-5.29-8.5-4.24-10.12-3.79-10.42a.69.69,0,0,1,.69-.09c1.91.6,5.54,5.45,9.31,14.93,0,0,0,0,0,0a6.75,6.75,0,0,0,1.47,2.24,6.58,6.58,0,0,0,4.27,1.91,46.72,46.72,0,0,0-3.63,18.24,44.84,44.84,0,0,0,.77,8.24h-12.2c5.16-9.47,7.59-15.66,7.39-22.63Zm9.67-8.81A2.28,2.28,0,1,1,234,116a2.26,2.26,0,0,1-.66,1.61Zm-22.79.6-.63-1.4H210a5.54,5.54,0,0,0,1.7-.27,6.19,6.19,0,0,0,2.93-2l1.05,1.72.3.48c2.06,3.31,3.2,5.14,3.34,9.83.11,4-.74,7.79-3.3,13.39-.16-9.88-3.12-16.43-5.51-21.73Zm2.35,39.08a40.23,40.23,0,0,0,1.37-3.94H229.5c.44,1.5.92,2.82,1.37,3.94Zm0,0"/></g></g><path id="_Compound_Path_5" data-name="&lt;Compound Path&gt;" class="cls-5" d="M447.47,92.15a32.93,32.93,0,1,0,32.93,32.93A33,33,0,0,0,447.47,92.15Zm24.79,47.55-10.24,2L458,137l4.85-13.59,6.33-3.1,6.93,7.57A28.73,28.73,0,0,1,472.26,139.7Zm-39.39,2.16-9.15-.51a28.59,28.59,0,0,1-4.92-13.48l7-7.56,6.36,3.1,4.78,13.6Zm37.05-34.8-2,9.31-6.45,3.17-11.89-8.66v-8L458,98.29A29,29,0,0,1,469.92,107.06ZM437,98.27l8.47,4.57v8l-11.87,8.66-6.5-3.17-2-9.37A28.9,28.9,0,0,1,437,98.27Zm1.69,54.23-2.59-8.06,4.13-5h14.54l4.06,4.8-4,8.63a28.29,28.29,0,0,1-16.14-.41Z"/><g id="_Group_8" data-name="&lt;Group&gt;"><g id="_Group_9" data-name="&lt;Group&gt;"><path id="_Compound_Path_6" data-name="&lt;Compound Path&gt;" class="cls-5" d="M688.71,116.2c-.3-.08-.59-.13-.88-.19l-18.39-7.07h-.18c-.38,0-9.6-.6-16.37,10.69-3.89,6.48-5.39,7.24-6.86,7.95a10,10,0,0,0-3.72,2.92c-3,3.48-11.62,12.2-15.19,15.78a3,3,0,0,0,.58,4.79l10.73,6.47,2.56,4.3a3.11,3.11,0,0,0,1.82,1.45,3,3,0,0,0,2.94-.91l13.16-14,13,6.81a15.35,15.35,0,0,0,5.54,2.84c9.65,2.6,20-4.68,23.15-16.22s-2.2-23-11.85-25.65Zm-28.1,30.42,4.27-4.52a21.82,21.82,0,0,0,2.7,8.19Zm7.64-21.93a32.83,32.83,0,0,1-6.67,8.39,4.33,4.33,0,0,1-4.15.28l-5.18-2.47c-1.19-.56-1.23-1.55-.22-2.38a23.53,23.53,0,0,0,6.07-8.35,2.29,2.29,0,0,1,3-1.25l6.1,2.73a2.1,2.1,0,0,1,1,3Zm0,0"/><path id="_Compound_Path_7" data-name="&lt;Compound Path&gt;" class="cls-5" d="M626.74,151.13l2.28,4.2,11.27,6.79-2.23-4Zm0,0"/></g></g><g id="_Group_10" data-name="&lt;Group&gt;"><g id="_Group_11" data-name="&lt;Group&gt;"><path id="_Compound_Path_8" data-name="&lt;Compound Path&gt;" class="cls-5" d="M571.76,107.42a18.89,18.89,0,0,0-37.77,0,24.64,24.64,0,0,0,.84,5.58h0a53.14,53.14,0,0,0,2.78,7c2.41,5.33,5.14,11.38,5.14,20.82a39.18,39.18,0,0,1-4.13,17.62,2.15,2.15,0,0,0,1.9,3.17h24.71a2.16,2.16,0,0,0,1.91-3.17A39,39,0,0,1,563,140.83c0-9.44,2.73-15.49,5.13-20.82a53.14,53.14,0,0,0,2.78-7h0a24.06,24.06,0,0,0,.84-5.58ZM552.88,92.85a14.59,14.59,0,0,1,14.57,14.57A18,18,0,0,1,567,111a6.56,6.56,0,0,0-8.8.26c-2.66-5.55-6-10.78-9.62-11.91a4.94,4.94,0,0,0-4.35.61c-1.71,1.12-3.26,3.77-1.4,8.89h0c.51,1.59-.34,3.27-1.38,3.6-1.21.39-2.52-.74-2.81-2.25a16,16,0,0,1-.31-2.79,14.59,14.59,0,0,1,14.58-14.57Zm1.77,33.59c-.17-5.85-1.77-8.42-4-12l-.3-.48c-5.29-8.5-4.23-10.12-3.79-10.42a.69.69,0,0,1,.69-.09c1.92.6,5.54,5.45,9.31,14.93,0,0,0,0,0,0a6.57,6.57,0,0,0,5.73,4.15,46.73,46.73,0,0,0-3.62,18.24,44,44,0,0,0,.77,8.24H547.26c5.17-9.47,7.59-15.66,7.39-22.63Zm9.67-8.81a2.27,2.27,0,0,1-3.88-1.61,2.29,2.29,0,0,1,.66-1.6,2.27,2.27,0,1,1,3.22,3.21Zm-22.78.6c-.22-.47-.43-.94-.63-1.4H541a5.65,5.65,0,0,0,1.71-.27,6.16,6.16,0,0,0,2.92-2l1.05,1.72.3.48c2.07,3.31,3.21,5.14,3.34,9.83.12,4-.73,7.79-3.29,13.39-.17-9.88-3.13-16.43-5.51-21.73Zm2.35,39.08c.45-1.12.92-2.44,1.36-3.94H560.5a40.23,40.23,0,0,0,1.37,3.94Zm0,0"/></g></g><path id="_Compound_Path_9" data-name="&lt;Compound Path&gt;" class="cls-5" d="M793.94,92.15a32.93,32.93,0,1,0,32.93,32.93A33,33,0,0,0,793.94,92.15Zm24.79,47.55-10.24,2-4-4.72,4.85-13.59,6.33-3.1,6.93,7.57A28.73,28.73,0,0,1,818.73,139.7Zm-39.39,2.16-9.15-.51a28.7,28.7,0,0,1-4.92-13.48l7-7.56,6.36,3.1,4.79,13.6Zm37-34.8-2,9.31-6.46,3.17L796,110.88v-8l8.47-4.55A29,29,0,0,1,816.39,107.06Zm-32.93-8.79,8.46,4.57v8l-11.87,8.66-6.49-3.17-2-9.37A28.87,28.87,0,0,1,783.46,98.27Zm1.68,54.23-2.59-8.06,4.13-5h14.54l4.06,4.8-4,8.63a28.29,28.29,0,0,1-16.14-.41Z"/><g id="_Group_12" data-name="&lt;Group&gt;"><g id="_Group_13" data-name="&lt;Group&gt;"><path id="_Compound_Path_10" data-name="&lt;Compound Path&gt;" class="cls-5" d="M1035.18,116.2c-.3-.08-.59-.13-.88-.19l-18.39-7.07h-.18c-.38,0-9.6-.6-16.36,10.69-3.89,6.48-5.4,7.24-6.87,7.95a10,10,0,0,0-3.72,2.92c-3,3.48-11.62,12.2-15.19,15.78a3,3,0,0,0,.58,4.79l10.73,6.47,2.56,4.3a3.1,3.1,0,0,0,1.83,1.45,3,3,0,0,0,2.93-.91l13.16-14,13,6.81a15.43,15.43,0,0,0,5.54,2.84c9.65,2.6,20-4.68,23.15-16.22s-2.2-23-11.85-25.65Zm-28.1,30.42,4.27-4.52a21.82,21.82,0,0,0,2.7,8.19Zm7.64-21.93a32.61,32.61,0,0,1-6.67,8.39,4.33,4.33,0,0,1-4.15.28l-5.18-2.47c-1.19-.56-1.23-1.55-.22-2.38a23.53,23.53,0,0,0,6.07-8.35,2.29,2.29,0,0,1,3-1.25l6.1,2.73a2.1,2.1,0,0,1,1,3Zm0,0"/><path id="_Compound_Path_11" data-name="&lt;Compound Path&gt;" class="cls-5" d="M973.21,151.13l2.28,4.2,11.27,6.79-2.23-4Zm0,0"/></g></g><g id="_Group_14" data-name="&lt;Group&gt;"><g id="_Group_15" data-name="&lt;Group&gt;"><path id="_Compound_Path_12" data-name="&lt;Compound Path&gt;" class="cls-5" d="M918.23,107.42a18.89,18.89,0,0,0-37.77,0,24.64,24.64,0,0,0,.84,5.58h0a53.14,53.14,0,0,0,2.78,7c2.41,5.33,5.14,11.38,5.14,20.82a39,39,0,0,1-4.13,17.62,2.16,2.16,0,0,0,1.9,3.17H911.7a2.16,2.16,0,0,0,1.91-3.17,39,39,0,0,1-4.13-17.62c0-9.44,2.73-15.49,5.14-20.82a54.46,54.46,0,0,0,2.77-7h0a24.06,24.06,0,0,0,.84-5.58ZM899.35,92.85a14.59,14.59,0,0,1,14.58,14.57,18,18,0,0,1-.49,3.59,6.56,6.56,0,0,0-8.8.26c-2.66-5.55-6-10.78-9.62-11.91a4.94,4.94,0,0,0-4.35.61c-1.7,1.12-3.25,3.77-1.4,8.89h0c.51,1.59-.34,3.27-1.38,3.6-1.21.39-2.52-.74-2.81-2.25a16,16,0,0,1-.31-2.79,14.59,14.59,0,0,1,14.58-14.57Zm1.77,33.59c-.17-5.85-1.77-8.42-4-12l-.3-.48c-5.28-8.5-4.23-10.12-3.79-10.42a.69.69,0,0,1,.69-.09c1.92.6,5.54,5.45,9.31,14.93,0,0,0,0,0,0a6.57,6.57,0,0,0,5.74,4.15,46.72,46.72,0,0,0-3.63,18.24,44,44,0,0,0,.77,8.24H893.73c5.17-9.47,7.59-15.66,7.39-22.63Zm9.67-8.81a2.26,2.26,0,0,1-1.61.67,2.28,2.28,0,0,1,0-4.55,2.27,2.27,0,0,1,1.61,3.88Zm-22.78.6c-.22-.47-.43-.94-.63-1.4h.11a5.65,5.65,0,0,0,1.71-.27,6.23,6.23,0,0,0,2.93-2c.34.58.69,1.15,1,1.72l.3.48c2.07,3.31,3.21,5.14,3.34,9.83.12,4-.73,7.79-3.29,13.39-.17-9.88-3.12-16.43-5.51-21.73Zm2.35,39.08c.45-1.12.93-2.44,1.37-3.94H907a40.23,40.23,0,0,0,1.37,3.94Zm0,0"/></g></g><path id="_Compound_Path_13" data-name="&lt;Compound Path&gt;" class="cls-5" d="M1124.94,92.15a32.93,32.93,0,1,0,32.93,32.93A33,33,0,0,0,1124.94,92.15Zm24.78,47.55-10.24,2-4-4.72,4.86-13.59,6.32-3.1,6.93,7.57A28.59,28.59,0,0,1,1149.72,139.7Zm-39.39,2.16-9.14-.51a28.59,28.59,0,0,1-4.92-13.48l7-7.56,6.35,3.1,4.79,13.6Zm37.06-34.8-2,9.31-6.46,3.17L1127,110.88v-8l8.46-4.55A29,29,0,0,1,1147.39,107.06Zm-32.94-8.79,8.47,4.57v8L1111,119.54l-6.49-3.17-2-9.37A28.87,28.87,0,0,1,1114.45,98.27Zm1.68,54.23-2.59-8.06,4.13-5h14.55l4,4.8-4,8.63a28.32,28.32,0,0,1-16.15-.41Z"/><g id="_Group_16" data-name="&lt;Group&gt;"><g id="_Group_17" data-name="&lt;Group&gt;"><path id="_Compound_Path_14" data-name="&lt;Compound Path&gt;" class="cls-5" d="M1366.17,116.2c-.29-.08-.58-.13-.88-.19l-18.39-7.07h-.18c-.38,0-9.6-.6-16.36,10.69-3.89,6.48-5.4,7.24-6.87,7.95a10,10,0,0,0-3.72,2.92c-3,3.48-11.61,12.2-15.19,15.78a3,3,0,0,0,.59,4.79l10.72,6.47,2.57,4.3a3.08,3.08,0,0,0,1.82,1.45,3,3,0,0,0,2.93-.91l13.17-14,12.95,6.81a15.48,15.48,0,0,0,5.55,2.84c9.65,2.6,20-4.68,23.14-16.22s-2.2-23-11.85-25.65Zm-28.1,30.42,4.28-4.52a21.64,21.64,0,0,0,2.7,8.19Zm7.64-21.93a32.61,32.61,0,0,1-6.67,8.39,4.31,4.31,0,0,1-4.14.28l-5.19-2.47c-1.19-.56-1.22-1.55-.21-2.38a23.49,23.49,0,0,0,6.06-8.35,2.3,2.3,0,0,1,3.06-1.25l6.1,2.73a2.1,2.1,0,0,1,1,3Zm0,0"/><path id="_Compound_Path_15" data-name="&lt;Compound Path&gt;" class="cls-5" d="M1304.21,151.13l2.27,4.2,11.28,6.79-2.23-4Zm0,0"/></g></g><g id="_Group_18" data-name="&lt;Group&gt;"><g id="_Group_19" data-name="&lt;Group&gt;"><path id="_Compound_Path_16" data-name="&lt;Compound Path&gt;" class="cls-5" d="M1249.23,107.42a18.89,18.89,0,0,0-37.78,0,23.88,23.88,0,0,0,.85,5.58h0a53.14,53.14,0,0,0,2.78,7c2.41,5.33,5.14,11.38,5.14,20.82a39,39,0,0,1-4.13,17.62,2.16,2.16,0,0,0,1.91,3.17h24.71a2.16,2.16,0,0,0,1.9-3.17,39,39,0,0,1-4.13-17.62c0-9.44,2.73-15.49,5.14-20.82a53.14,53.14,0,0,0,2.78-7h0a24.64,24.64,0,0,0,.84-5.58Zm-18.89-14.57a14.59,14.59,0,0,1,14.58,14.57,18,18,0,0,1-.48,3.59,6.57,6.57,0,0,0-8.81.26c-2.65-5.55-6-10.78-9.61-11.91a5,5,0,0,0-4.36.61c-1.7,1.12-3.25,3.77-1.39,8.89h0c.5,1.59-.35,3.27-1.38,3.6-1.22.39-2.53-.74-2.81-2.25a16,16,0,0,1-.32-2.79,14.59,14.59,0,0,1,14.58-14.57Zm1.77,33.59c-.16-5.85-1.77-8.42-4-12l-.29-.48c-5.29-8.5-4.24-10.12-3.79-10.42a.67.67,0,0,1,.68-.09c1.92.6,5.55,5.45,9.32,14.93,0,0,0,0,0,0a6.57,6.57,0,0,0,5.74,4.15,46.72,46.72,0,0,0-3.63,18.24,44.84,44.84,0,0,0,.77,8.24h-12.2c5.16-9.47,7.58-15.66,7.38-22.63Zm9.68-8.81a2.3,2.3,0,0,1-1.61.67,2.27,2.27,0,1,1,2.27-2.28,2.29,2.29,0,0,1-.66,1.61Zm-22.79.6-.63-1.4h.11a5.6,5.6,0,0,0,1.71-.27,6.19,6.19,0,0,0,2.93-2c.34.58.7,1.15,1.05,1.72l.3.48c2.06,3.31,3.2,5.14,3.34,9.83.11,4-.74,7.79-3.3,13.39-.16-9.88-3.12-16.43-5.51-21.73Zm2.35,39.08c.45-1.12.93-2.44,1.37-3.94H1238c.44,1.5.92,2.82,1.37,3.94Zm0,0"/></g></g><path id="_Compound_Path_17" data-name="&lt;Compound Path&gt;" class="cls-5" d="M1461,92.15A32.93,32.93,0,1,0,1494,125.08,33,33,0,0,0,1461,92.15Zm24.78,47.55-10.24,2-4-4.72,4.86-13.59,6.32-3.1,6.93,7.57A28.59,28.59,0,0,1,1485.81,139.7Zm-39.39,2.16-9.14-.51a28.59,28.59,0,0,1-4.92-13.48l7-7.56,6.35,3.1,4.79,13.6Zm37.06-34.8-2,9.31-6.46,3.17-11.88-8.66v-8l8.46-4.55A29,29,0,0,1,1483.48,107.06Zm-32.94-8.79,8.47,4.57v8l-11.88,8.66-6.49-3.17-2-9.37A28.87,28.87,0,0,1,1450.54,98.27Zm1.68,54.23-2.59-8.06,4.13-5h14.55l4,4.8-4,8.63a28.32,28.32,0,0,1-16.15-.41Z"/><g id="_Group_20" data-name="&lt;Group&gt;"><g id="_Group_21" data-name="&lt;Group&gt;"><path id="_Compound_Path_18" data-name="&lt;Compound Path&gt;" class="cls-5" d="M1702.26,116.2c-.29-.08-.58-.13-.88-.19L1683,108.94h-.18c-.38,0-9.6-.6-16.36,10.69-3.89,6.48-5.4,7.24-6.87,7.95a10,10,0,0,0-3.72,2.92c-3,3.48-11.61,12.2-15.19,15.78a3,3,0,0,0,.59,4.79l10.72,6.47,2.57,4.3a3.08,3.08,0,0,0,1.82,1.45,3,3,0,0,0,2.93-.91l13.17-14,13,6.81a15.48,15.48,0,0,0,5.55,2.84c9.65,2.6,20-4.68,23.14-16.22s-2.2-23-11.85-25.65Zm-28.1,30.42,4.28-4.52a21.64,21.64,0,0,0,2.7,8.19Zm7.64-21.93a32.61,32.61,0,0,1-6.67,8.39,4.31,4.31,0,0,1-4.14.28l-5.19-2.47c-1.19-.56-1.22-1.55-.21-2.38a23.49,23.49,0,0,0,6.06-8.35,2.3,2.3,0,0,1,3.06-1.25l6.1,2.73a2.1,2.1,0,0,1,1,3Zm0,0"/><path id="_Compound_Path_19" data-name="&lt;Compound Path&gt;" class="cls-5" d="M1640.3,151.13l2.27,4.2,11.28,6.79-2.23-4Zm0,0"/></g></g><g id="_Group_22" data-name="&lt;Group&gt;"><g id="_Group_23" data-name="&lt;Group&gt;"><path id="_Compound_Path_20" data-name="&lt;Compound Path&gt;" class="cls-5" d="M1585.32,107.42a18.89,18.89,0,0,0-37.78,0,23.88,23.88,0,0,0,.85,5.58h0a53.14,53.14,0,0,0,2.78,7c2.41,5.33,5.14,11.38,5.14,20.82a39,39,0,0,1-4.13,17.62,2.16,2.16,0,0,0,1.91,3.17h24.71a2.16,2.16,0,0,0,1.9-3.17,39,39,0,0,1-4.13-17.62c0-9.44,2.73-15.49,5.14-20.82a53.14,53.14,0,0,0,2.78-7h0a24.64,24.64,0,0,0,.84-5.58Zm-18.89-14.57A14.59,14.59,0,0,1,1581,107.42a18,18,0,0,1-.48,3.59,6.57,6.57,0,0,0-8.81.26c-2.65-5.55-6-10.78-9.61-11.91a5,5,0,0,0-4.36.61c-1.7,1.12-3.25,3.77-1.39,8.89h0c.5,1.59-.35,3.27-1.38,3.6-1.22.39-2.53-.74-2.81-2.25a16,16,0,0,1-.32-2.79,14.59,14.59,0,0,1,14.58-14.57Zm1.77,33.59c-.16-5.85-1.77-8.42-4-12l-.29-.48c-5.29-8.5-4.24-10.12-3.79-10.42a.67.67,0,0,1,.68-.09c1.92.6,5.55,5.45,9.32,14.93,0,0,0,0,0,0a6.57,6.57,0,0,0,5.74,4.15,46.72,46.72,0,0,0-3.63,18.24,44.84,44.84,0,0,0,.77,8.24h-12.2c5.16-9.47,7.58-15.66,7.38-22.63Zm9.68-8.81A2.28,2.28,0,0,1,1574,116a2.28,2.28,0,0,1,4.55,0,2.29,2.29,0,0,1-.66,1.61Zm-22.79.6-.63-1.4h.11a5.6,5.6,0,0,0,1.71-.27,6.19,6.19,0,0,0,2.93-2c.34.58.7,1.15,1,1.72l.3.48c2.06,3.31,3.2,5.14,3.34,9.83.11,4-.74,7.79-3.3,13.39-.16-9.88-3.12-16.43-5.51-21.73Zm2.35,39.08c.45-1.12.93-2.44,1.37-3.94h15.24c.44,1.5.92,2.82,1.37,3.94Zm0,0"/></g></g><path id="_Compound_Path_21" data-name="&lt;Compound Path&gt;" class="cls-5" d="M1792,92.15A32.93,32.93,0,1,0,1825,125.08,33,33,0,0,0,1792,92.15Zm24.78,47.55-10.23,2-4-4.72,4.85-13.59,6.33-3.1,6.92,7.57A28.44,28.44,0,0,1,1816.8,139.7Zm-39.38,2.16-9.15-.51a28.59,28.59,0,0,1-4.92-13.48l7-7.56,6.35,3.1,4.79,13.6Zm37-34.8-2,9.31-6.46,3.17-11.88-8.66v-8l8.47-4.55A29,29,0,0,1,1814.47,107.06Zm-32.94-8.79,8.47,4.57v8l-11.88,8.66-6.49-3.17-2-9.37A28.9,28.9,0,0,1,1781.53,98.27Zm1.69,54.23-2.59-8.06,4.12-5h14.55l4.06,4.8-4,8.63a28.29,28.29,0,0,1-16.14-.41Z"/><g id="_Group_24" data-name="&lt;Group&gt;"><g id="_Group_25" data-name="&lt;Group&gt;"><path id="_Compound_Path_22" data-name="&lt;Compound Path&gt;" class="cls-5" d="M1916.31,107.42a18.89,18.89,0,0,0-37.77,0,24.06,24.06,0,0,0,.84,5.58h0a53.14,53.14,0,0,0,2.78,7c2.4,5.33,5.13,11.38,5.13,20.82a39,39,0,0,1-4.13,17.62,2.16,2.16,0,0,0,1.91,3.17h24.71a2.15,2.15,0,0,0,1.9-3.17,39.18,39.18,0,0,1-4.13-17.62c0-9.44,2.73-15.49,5.14-20.82a53.14,53.14,0,0,0,2.78-7h0a24.64,24.64,0,0,0,.84-5.58Zm-18.89-14.57A14.59,14.59,0,0,1,1912,107.42a18,18,0,0,1-.48,3.59,6.56,6.56,0,0,0-8.8.26c-2.66-5.55-6-10.78-9.62-11.91a4.94,4.94,0,0,0-4.35.61c-1.71,1.12-3.26,3.77-1.4,8.89h0c.51,1.59-.34,3.27-1.38,3.6-1.21.39-2.52-.74-2.81-2.25a16,16,0,0,1-.31-2.79,14.59,14.59,0,0,1,14.57-14.57Zm1.78,33.59c-.17-5.85-1.77-8.42-4-12l-.3-.48c-5.29-8.5-4.24-10.12-3.79-10.42a.69.69,0,0,1,.69-.09c1.92.6,5.54,5.45,9.31,14.93l0,0a6.46,6.46,0,0,0,1.47,2.24,6.55,6.55,0,0,0,4.26,1.91,46.73,46.73,0,0,0-3.62,18.24,44.88,44.88,0,0,0,.76,8.24h-12.2c5.16-9.47,7.59-15.66,7.39-22.63Zm9.67-8.81a2.28,2.28,0,1,1,.66-1.61,2.26,2.26,0,0,1-.66,1.61Zm-22.79.6-.62-1.4h.11a5.65,5.65,0,0,0,1.71-.27,6.21,6.21,0,0,0,2.92-2l1,1.72.3.48c2.07,3.31,3.21,5.14,3.34,9.83.11,4-.74,7.79-3.3,13.39-.16-9.88-3.12-16.43-5.51-21.73Zm2.35,39.08a40.23,40.23,0,0,0,1.37-3.94h15.25c.44,1.5.91,2.82,1.36,3.94Zm0,0"/></g></g></g><g id="_Group_26" data-name="&lt;Group&gt;"><path id="_Compound_Path_23" data-name="&lt;Compound Path&gt;" class="cls-5" d="M58.11,4A32.93,32.93,0,1,0,91,36.94,33,33,0,0,0,58.11,4ZM82.89,51.56l-10.23,2-4-4.72,4.85-13.59,6.33-3.1,6.92,7.57A28.44,28.44,0,0,1,82.89,51.56ZM43.51,53.72l-9.15-.51a28.59,28.59,0,0,1-4.92-13.47l7-7.57,6.36,3.1,4.78,13.6Zm37.05-34.8-2,9.31L72.09,31.4,60.2,22.74v-8l8.47-4.55A29,29,0,0,1,80.56,18.92ZM47.62,10.13l8.47,4.57v8L44.22,31.4l-6.5-3.17-2-9.37A28.9,28.9,0,0,1,47.62,10.13Zm1.69,54.23L46.72,56.3l4.13-5H65.39l4.06,4.8-4,8.63a28.29,28.29,0,0,1-16.14-.41Z"/><g id="_Group_27" data-name="&lt;Group&gt;"><g id="_Group_28" data-name="&lt;Group&gt;"><path id="_Compound_Path_24" data-name="&lt;Compound Path&gt;" class="cls-5" d="M299.35,28.06c-.3-.08-.59-.13-.88-.19L280.08,20.8h-.18c-.38,0-9.6-.6-16.37,10.69-3.89,6.48-5.4,7.24-6.86,8A10,10,0,0,0,253,42.35c-3,3.49-11.62,12.2-15.19,15.78a3,3,0,0,0,.58,4.79l10.73,6.47,2.56,4.3a3.07,3.07,0,0,0,1.82,1.45,3,3,0,0,0,2.93-.91l13.17-14,13,6.81a15.35,15.35,0,0,0,5.54,2.84c9.65,2.6,20-4.68,23.15-16.22s-2.2-23-11.85-25.65Zm-28.1,30.42L275.52,54a21.82,21.82,0,0,0,2.7,8.19Zm7.64-21.93a32.83,32.83,0,0,1-6.67,8.39,4.33,4.33,0,0,1-4.15.28l-5.18-2.47c-1.2-.56-1.23-1.55-.22-2.38A23.53,23.53,0,0,0,268.74,32a2.29,2.29,0,0,1,3.05-1.25l6.1,2.73a2.1,2.1,0,0,1,1,3Zm0,0"/><path id="_Compound_Path_25" data-name="&lt;Compound Path&gt;" class="cls-5" d="M237.38,63l2.28,4.2L250.93,74l-2.23-4Zm0,0"/></g></g><g id="_Group_29" data-name="&lt;Group&gt;"><g id="_Group_30" data-name="&lt;Group&gt;"><path id="_Compound_Path_26" data-name="&lt;Compound Path&gt;" class="cls-5" d="M182.4,19.28a18.89,18.89,0,0,0-37.77,0,24.64,24.64,0,0,0,.84,5.58h0a53.14,53.14,0,0,0,2.78,7c2.41,5.33,5.14,11.38,5.14,20.82a39.18,39.18,0,0,1-4.13,17.62,2.15,2.15,0,0,0,1.9,3.17h24.71a2.16,2.16,0,0,0,1.91-3.17,39,39,0,0,1-4.13-17.62c0-9.44,2.73-15.49,5.13-20.82a53.14,53.14,0,0,0,2.78-7h0a24.06,24.06,0,0,0,.84-5.58ZM163.52,4.71a14.59,14.59,0,0,1,14.57,14.57,18,18,0,0,1-.48,3.59,6.56,6.56,0,0,0-8.8.26c-2.66-5.55-6-10.78-9.62-11.91a4.94,4.94,0,0,0-4.35.61c-1.71,1.12-3.26,3.77-1.4,8.89h0c.51,1.59-.34,3.27-1.38,3.6-1.21.39-2.52-.74-2.81-2.25a16,16,0,0,1-.31-2.79A14.59,14.59,0,0,1,163.52,4.71Zm1.77,33.59c-.17-5.85-1.77-8.42-4-12l-.3-.48c-5.29-8.5-4.24-10.12-3.79-10.42a.69.69,0,0,1,.69-.09c1.92.6,5.54,5.45,9.31,14.93,0,0,0,0,0,0A6.57,6.57,0,0,0,173,34.45a46.73,46.73,0,0,0-3.62,18.24,43.9,43.9,0,0,0,.77,8.24H157.9c5.17-9.47,7.59-15.66,7.39-22.63ZM175,29.49a2.26,2.26,0,1,1,.67-1.61,2.26,2.26,0,0,1-.67,1.61Zm-22.78.6c-.22-.47-.43-.94-.63-1.4h.11a5.65,5.65,0,0,0,1.71-.27,6.16,6.16,0,0,0,2.92-2l1.05,1.72.3.48c2.07,3.31,3.21,5.14,3.34,9.83.12,4-.73,7.79-3.29,13.39-.17-9.87-3.13-16.43-5.51-21.73Zm2.35,39.08c.45-1.12.92-2.44,1.36-3.94h15.25a40.23,40.23,0,0,0,1.37,3.94Zm0,0"/></g></g><path id="_Compound_Path_27" data-name="&lt;Compound Path&gt;" class="cls-5" d="M389.1,4A32.93,32.93,0,1,0,422,36.94,33,33,0,0,0,389.1,4Zm24.79,47.55-10.24,2-4-4.72,4.85-13.59,6.33-3.1,6.93,7.57A28.73,28.73,0,0,1,413.89,51.56ZM374.5,53.72l-9.15-.51a28.69,28.69,0,0,1-4.91-13.47l7-7.57,6.36,3.1,4.79,13.6Zm37.05-34.8-2,9.31-6.46,3.17L391.2,22.74v-8l8.46-4.55A29,29,0,0,1,411.55,18.92Zm-32.93-8.79,8.46,4.57v8L375.21,31.4l-6.49-3.17-2-9.37A28.87,28.87,0,0,1,378.62,10.13Zm1.68,54.23-2.59-8.06,4.13-5h14.55l4.05,4.8-4,8.63a28.29,28.29,0,0,1-16.14-.41Z"/><g id="_Group_31" data-name="&lt;Group&gt;"><g id="_Group_32" data-name="&lt;Group&gt;"><path id="_Compound_Path_28" data-name="&lt;Compound Path&gt;" class="cls-5" d="M630.34,28.06c-.29-.08-.59-.13-.88-.19L611.07,20.8h-.18c-.38,0-9.6-.6-16.36,10.69-3.89,6.48-5.4,7.24-6.87,8a10,10,0,0,0-3.72,2.92c-3,3.49-11.61,12.2-15.19,15.78a3.1,3.1,0,0,0-.94,2.55,3.06,3.06,0,0,0,1.52,2.24l10.73,6.47,2.57,4.3a3,3,0,0,0,1.82,1.45,3,3,0,0,0,2.93-.91l13.17-14,13,6.81A15.43,15.43,0,0,0,619,69.93c9.66,2.6,20.05-4.68,23.15-16.22s-2.2-23-11.85-25.65Zm-28.1,30.42L606.51,54a22,22,0,0,0,2.7,8.19Zm7.64-21.93a32.61,32.61,0,0,1-6.67,8.39,4.33,4.33,0,0,1-4.15.28l-5.18-2.47c-1.19-.56-1.23-1.55-.21-2.38A23.49,23.49,0,0,0,599.73,32a2.3,2.3,0,0,1,3.06-1.25l6.1,2.73a2.1,2.1,0,0,1,1,3Zm0,0"/><path id="_Compound_Path_29" data-name="&lt;Compound Path&gt;" class="cls-5" d="M568.38,63l2.27,4.2L581.93,74l-2.23-4Zm0,0"/></g></g><g id="_Group_33" data-name="&lt;Group&gt;"><g id="_Group_34" data-name="&lt;Group&gt;"><path id="_Compound_Path_30" data-name="&lt;Compound Path&gt;" class="cls-5" d="M513.4,19.28a18.89,18.89,0,0,0-37.78,0,24.64,24.64,0,0,0,.84,5.58h0a53.14,53.14,0,0,0,2.78,7c2.41,5.33,5.14,11.38,5.14,20.82a39,39,0,0,1-4.13,17.62,2.16,2.16,0,0,0,1.9,3.17h24.72a2.16,2.16,0,0,0,1.9-3.17,39,39,0,0,1-4.13-17.62c0-9.44,2.73-15.49,5.14-20.82a54.55,54.55,0,0,0,2.78-7h0a23.88,23.88,0,0,0,.85-5.58ZM494.51,4.71a14.59,14.59,0,0,1,14.58,14.57,18,18,0,0,1-.48,3.59,6.57,6.57,0,0,0-8.81.26c-2.65-5.55-6-10.78-9.62-11.91a4.94,4.94,0,0,0-4.35.61c-1.7,1.12-3.25,3.77-1.39,8.89,0,.08,0-.08,0,0h0c.5,1.59-.35,3.27-1.39,3.6-1.21.39-2.52-.74-2.81-2.25a16,16,0,0,1-.31-2.79A14.59,14.59,0,0,1,494.51,4.71Zm1.77,33.59c-.17-5.85-1.77-8.42-4-12l-.3-.48c-5.28-8.5-4.23-10.12-3.78-10.42a.67.67,0,0,1,.68-.09c1.92.6,5.54,5.45,9.32,14.93,0,0,0,0,0,0a6.6,6.6,0,0,0,1.47,2.24A6.53,6.53,0,0,0,504,34.45a46.72,46.72,0,0,0-3.63,18.24,44.75,44.75,0,0,0,.77,8.24H488.9c5.16-9.47,7.58-15.66,7.38-22.63ZM506,29.49a2.26,2.26,0,1,1,.67-1.61,2.26,2.26,0,0,1-.67,1.61Zm-22.78.6-.63-1.4h.11a5.65,5.65,0,0,0,1.71-.27,6.23,6.23,0,0,0,2.93-2c.34.58.69,1.15,1,1.72l.3.48c2.07,3.31,3.21,5.14,3.34,9.83.12,4-.73,7.79-3.29,13.39-.17-9.87-3.12-16.43-5.51-21.73Zm2.35,39.08c.45-1.12.93-2.44,1.37-3.94h15.24c.44,1.5.92,2.82,1.37,3.94Zm0,0"/></g></g><path id="_Compound_Path_31" data-name="&lt;Compound Path&gt;" class="cls-5" d="M735.58,4a32.93,32.93,0,1,0,32.93,32.93A33,33,0,0,0,735.58,4Zm24.78,47.55-10.24,2-4-4.72L751,35.27l6.32-3.1,6.93,7.57A28.73,28.73,0,0,1,760.36,51.56ZM721,53.72l-9.14-.51a28.59,28.59,0,0,1-4.92-13.47l7-7.57,6.35,3.1L725,48.87ZM758,18.92l-2,9.31-6.46,3.17-11.88-8.66v-8l8.46-4.55A29,29,0,0,1,758,18.92Zm-32.94-8.79,8.46,4.57v8L721.68,31.4l-6.49-3.17-2-9.37A28.87,28.87,0,0,1,725.09,10.13Zm1.68,54.23-2.59-8.06,4.13-5h14.55l4,4.8-4,8.63a28.32,28.32,0,0,1-16.15-.41Z"/><g id="_Group_35" data-name="&lt;Group&gt;"><g id="_Group_36" data-name="&lt;Group&gt;"><path id="_Compound_Path_32" data-name="&lt;Compound Path&gt;" class="cls-5" d="M976.81,28.06c-.29-.08-.59-.13-.88-.19L957.54,20.8h-.18c-.38,0-9.6-.6-16.36,10.69-3.89,6.48-5.4,7.24-6.87,8a10,10,0,0,0-3.72,2.92c-3,3.49-11.61,12.2-15.19,15.78a3.1,3.1,0,0,0-.94,2.55,3.05,3.05,0,0,0,1.53,2.24l10.72,6.47,2.57,4.3a3,3,0,0,0,1.82,1.45,3,3,0,0,0,2.93-.91l13.17-14,13,6.81a15.48,15.48,0,0,0,5.55,2.84c9.65,2.6,20-4.68,23.14-16.22s-2.2-23-11.85-25.65Zm-28.1,30.42L953,54a21.64,21.64,0,0,0,2.7,8.19Zm7.64-21.93a32.61,32.61,0,0,1-6.67,8.39,4.31,4.31,0,0,1-4.14.28l-5.19-2.47c-1.19-.56-1.22-1.55-.21-2.38A23.49,23.49,0,0,0,946.2,32a2.3,2.3,0,0,1,3.06-1.25l6.1,2.73a2.1,2.1,0,0,1,1,3Zm0,0"/><path id="_Compound_Path_33" data-name="&lt;Compound Path&gt;" class="cls-5" d="M914.85,63l2.27,4.2L928.4,74l-2.23-4Zm0,0"/></g></g><g id="_Group_37" data-name="&lt;Group&gt;"><g id="_Group_38" data-name="&lt;Group&gt;"><path id="_Compound_Path_34" data-name="&lt;Compound Path&gt;" class="cls-5" d="M859.87,19.28a18.89,18.89,0,0,0-37.78,0,23.88,23.88,0,0,0,.85,5.58h0a53.14,53.14,0,0,0,2.78,7c2.41,5.33,5.14,11.38,5.14,20.82a39,39,0,0,1-4.13,17.62,2.16,2.16,0,0,0,1.9,3.17h24.72a2.16,2.16,0,0,0,1.9-3.17,39,39,0,0,1-4.13-17.62c0-9.44,2.73-15.49,5.14-20.82a53.14,53.14,0,0,0,2.78-7h0a24.64,24.64,0,0,0,.84-5.58ZM841,4.71a14.59,14.59,0,0,1,14.58,14.57,18,18,0,0,1-.48,3.59,6.57,6.57,0,0,0-8.81.26c-2.65-5.55-6-10.78-9.62-11.91a4.94,4.94,0,0,0-4.35.61c-1.7,1.12-3.25,3.77-1.39,8.89h0c.5,1.59-.35,3.27-1.39,3.6-1.21.39-2.52-.74-2.8-2.25a16,16,0,0,1-.32-2.79A14.59,14.59,0,0,1,841,4.71Zm1.77,33.59c-.17-5.85-1.77-8.42-4-12l-.29-.48c-5.29-8.5-4.24-10.12-3.79-10.42a.67.67,0,0,1,.68-.09c1.92.6,5.54,5.45,9.32,14.93,0,0,0,0,0,0a6.6,6.6,0,0,0,1.47,2.24,6.53,6.53,0,0,0,4.27,1.91,46.72,46.72,0,0,0-3.63,18.24,44.75,44.75,0,0,0,.77,8.24h-12.2c5.16-9.47,7.58-15.66,7.38-22.63Zm9.67-8.81a2.26,2.26,0,1,1,.67-1.61,2.26,2.26,0,0,1-.67,1.61Zm-22.78.6-.63-1.4h.11a5.6,5.6,0,0,0,1.71-.27,6.19,6.19,0,0,0,2.93-2c.34.58.7,1.15,1,1.72l.3.48c2.06,3.31,3.2,5.14,3.34,9.83.11,4-.74,7.79-3.3,13.39C835,42,832,35.39,829.64,30.09ZM832,69.17c.45-1.12.93-2.44,1.37-3.94H848.6c.44,1.5.92,2.82,1.37,3.94Zm0,0"/></g></g><path id="_Compound_Path_35" data-name="&lt;Compound Path&gt;" class="cls-5" d="M1066.57,4a32.93,32.93,0,1,0,32.93,32.93A33,33,0,0,0,1066.57,4Zm24.78,47.55-10.23,2-4-4.72L1082,35.27l6.33-3.1,6.92,7.57A28.44,28.44,0,0,1,1091.35,51.56ZM1052,53.72l-9.15-.51a28.59,28.59,0,0,1-4.92-13.47l7-7.57,6.35,3.1,4.79,13.6Zm37-34.8-2,9.31-6.46,3.17-11.88-8.66v-8l8.47-4.55A29,29,0,0,1,1089,18.92Zm-32.94-8.79,8.47,4.57v8l-11.88,8.66-6.49-3.17-2-9.37A28.84,28.84,0,0,1,1056.08,10.13Zm1.68,54.23-2.58-8.06,4.12-5h14.55l4.06,4.8-4,8.63a28.32,28.32,0,0,1-16.15-.41Z"/><g id="_Group_39" data-name="&lt;Group&gt;"><g id="_Group_40" data-name="&lt;Group&gt;"><path id="_Compound_Path_36" data-name="&lt;Compound Path&gt;" class="cls-5" d="M1307.8,28.06c-.29-.08-.58-.13-.88-.19l-18.39-7.07h-.17c-.39,0-9.6-.6-16.37,10.69-3.89,6.48-5.4,7.24-6.86,8a9.88,9.88,0,0,0-3.72,2.92c-3,3.49-11.62,12.2-15.2,15.78a3,3,0,0,0,.59,4.79l10.72,6.47,2.57,4.3a3.07,3.07,0,0,0,1.82,1.45,3,3,0,0,0,2.93-.91l13.17-14,13,6.81a15.35,15.35,0,0,0,5.54,2.84c9.65,2.6,20-4.68,23.15-16.22s-2.2-23-11.86-25.65Zm-28.09,30.42L1284,54a21.64,21.64,0,0,0,2.7,8.19Zm7.64-21.93a33,33,0,0,1-6.67,8.39,4.33,4.33,0,0,1-4.15.28l-5.19-2.47c-1.19-.56-1.22-1.55-.21-2.38A23.53,23.53,0,0,0,1277.2,32a2.29,2.29,0,0,1,3-1.25l6.1,2.73a2.1,2.1,0,0,1,1,3Zm0,0"/><path id="_Compound_Path_37" data-name="&lt;Compound Path&gt;" class="cls-5" d="M1245.84,63l2.27,4.2L1259.39,74l-2.23-4Zm0,0"/></g></g><g id="_Group_41" data-name="&lt;Group&gt;"><g id="_Group_42" data-name="&lt;Group&gt;"><path id="_Compound_Path_38" data-name="&lt;Compound Path&gt;" class="cls-5" d="M1190.86,19.28a18.89,18.89,0,0,0-37.77,0,24.06,24.06,0,0,0,.84,5.58h0a53.14,53.14,0,0,0,2.78,7c2.4,5.33,5.13,11.38,5.13,20.82a39,39,0,0,1-4.13,17.62,2.16,2.16,0,0,0,1.91,3.17h24.71a2.15,2.15,0,0,0,1.9-3.17,39.18,39.18,0,0,1-4.13-17.62c0-9.44,2.73-15.49,5.14-20.82a53.14,53.14,0,0,0,2.78-7h0a24.64,24.64,0,0,0,.84-5.58ZM1172,4.71a14.59,14.59,0,0,1,14.58,14.57,18,18,0,0,1-.48,3.59,6.57,6.57,0,0,0-8.81.26c-2.65-5.55-6-10.78-9.61-11.91a4.94,4.94,0,0,0-4.35.61c-1.71,1.12-3.26,3.77-1.4,8.89h0c.51,1.59-.34,3.27-1.38,3.6-1.22.39-2.52-.74-2.81-2.25a16,16,0,0,1-.31-2.79A14.59,14.59,0,0,1,1172,4.71Zm1.78,33.59c-.17-5.85-1.77-8.42-4-12l-.3-.48c-5.29-8.5-4.24-10.12-3.79-10.42a.69.69,0,0,1,.69-.09c1.92.6,5.54,5.45,9.31,14.93l0,0a6.57,6.57,0,0,0,5.73,4.15,46.73,46.73,0,0,0-3.62,18.24,44.8,44.8,0,0,0,.76,8.24h-12.2c5.16-9.47,7.59-15.66,7.39-22.63Zm9.67-8.81a2.28,2.28,0,1,1,.66-1.61,2.26,2.26,0,0,1-.66,1.61Zm-22.79.6-.63-1.4h.12a5.65,5.65,0,0,0,1.71-.27,6.21,6.21,0,0,0,2.92-2l1,1.72.3.48c2.07,3.31,3.2,5.14,3.34,9.83.11,4-.74,7.79-3.3,13.39-.16-9.87-3.12-16.43-5.51-21.73ZM1163,69.17a40.23,40.23,0,0,0,1.37-3.94h15.24c.45,1.5.92,2.82,1.37,3.94Zm0,0"/></g></g><path id="_Compound_Path_39" data-name="&lt;Compound Path&gt;" class="cls-5" d="M1402.66,4a32.93,32.93,0,1,0,32.93,32.93A33,33,0,0,0,1402.66,4Zm24.78,47.55-10.23,2-4-4.72,4.85-13.59,6.33-3.1,6.92,7.57A28.44,28.44,0,0,1,1427.44,51.56Zm-39.38,2.16-9.15-.51A28.59,28.59,0,0,1,1374,39.74l7-7.57,6.35,3.1,4.79,13.6Zm37-34.8-2,9.31-6.46,3.17-11.88-8.66v-8l8.47-4.55A29,29,0,0,1,1425.11,18.92Zm-32.94-8.79,8.47,4.57v8l-11.88,8.66-6.49-3.17-2-9.37A28.84,28.84,0,0,1,1392.17,10.13Zm1.68,54.23-2.58-8.06,4.12-5h14.55l4.06,4.8-4,8.63a28.32,28.32,0,0,1-16.15-.41Z"/><g id="_Group_43" data-name="&lt;Group&gt;"><g id="_Group_44" data-name="&lt;Group&gt;"><path id="_Compound_Path_40" data-name="&lt;Compound Path&gt;" class="cls-5" d="M1643.89,28.06c-.29-.08-.58-.13-.88-.19l-18.39-7.07h-.17c-.39,0-9.6-.6-16.37,10.69-3.89,6.48-5.4,7.24-6.86,8a9.88,9.88,0,0,0-3.72,2.92c-3,3.49-11.62,12.2-15.2,15.78a3,3,0,0,0,.59,4.79l10.72,6.47,2.57,4.3a3.07,3.07,0,0,0,1.82,1.45,3,3,0,0,0,2.93-.91l13.17-14,13,6.81a15.35,15.35,0,0,0,5.54,2.84c9.65,2.6,20-4.68,23.15-16.22s-2.2-23-11.86-25.65ZM1615.8,58.48l4.27-4.52a21.64,21.64,0,0,0,2.7,8.19Zm7.64-21.93a33,33,0,0,1-6.67,8.39,4.33,4.33,0,0,1-4.15.28l-5.19-2.47c-1.19-.56-1.22-1.55-.21-2.38a23.53,23.53,0,0,0,6.07-8.35,2.29,2.29,0,0,1,3-1.25l6.1,2.73a2.1,2.1,0,0,1,1,3Zm0,0"/><path id="_Compound_Path_41" data-name="&lt;Compound Path&gt;" class="cls-5" d="M1581.93,63l2.27,4.2L1595.48,74l-2.23-4Zm0,0"/></g></g><g id="_Group_45" data-name="&lt;Group&gt;"><g id="_Group_46" data-name="&lt;Group&gt;"><path id="_Compound_Path_42" data-name="&lt;Compound Path&gt;" class="cls-5" d="M1527,19.28a18.89,18.89,0,0,0-37.77,0,24.06,24.06,0,0,0,.84,5.58h0a53.14,53.14,0,0,0,2.78,7c2.4,5.33,5.13,11.38,5.13,20.82a39,39,0,0,1-4.13,17.62,2.16,2.16,0,0,0,1.91,3.17h24.71a2.15,2.15,0,0,0,1.9-3.17,39.18,39.18,0,0,1-4.13-17.62c0-9.44,2.73-15.49,5.14-20.82a53.14,53.14,0,0,0,2.78-7h0a24.64,24.64,0,0,0,.84-5.58ZM1508.06,4.71a14.59,14.59,0,0,1,14.58,14.57,18,18,0,0,1-.48,3.59,6.57,6.57,0,0,0-8.81.26c-2.65-5.55-6-10.78-9.61-11.91a4.94,4.94,0,0,0-4.35.61c-1.71,1.12-3.26,3.77-1.4,8.89h0c.51,1.59-.34,3.27-1.38,3.6-1.22.39-2.52-.74-2.81-2.25a16,16,0,0,1-.31-2.79,14.59,14.59,0,0,1,14.57-14.57Zm1.78,33.59c-.17-5.85-1.77-8.42-4-12l-.3-.48c-5.29-8.5-4.24-10.12-3.79-10.42a.69.69,0,0,1,.69-.09c1.92.6,5.54,5.45,9.31,14.93l0,0a6.57,6.57,0,0,0,5.73,4.15,46.73,46.73,0,0,0-3.62,18.24,44.8,44.8,0,0,0,.76,8.24h-12.2c5.16-9.47,7.59-15.66,7.39-22.63Zm9.67-8.81a2.28,2.28,0,1,1,.66-1.61,2.26,2.26,0,0,1-.66,1.61Zm-22.79.6-.62-1.4h.11a5.65,5.65,0,0,0,1.71-.27,6.21,6.21,0,0,0,2.92-2l1.05,1.72.3.48c2.07,3.31,3.2,5.14,3.34,9.83.11,4-.74,7.79-3.3,13.39-.16-9.87-3.12-16.43-5.51-21.73Zm2.35,39.08a40.23,40.23,0,0,0,1.37-3.94h15.24c.45,1.5.92,2.82,1.37,3.94Zm0,0"/></g></g><path id="_Compound_Path_43" data-name="&lt;Compound Path&gt;" class="cls-5" d="M1733.65,4a32.93,32.93,0,1,0,32.93,32.93A33,33,0,0,0,1733.65,4Zm24.79,47.55-10.24,2-4-4.72,4.85-13.59,6.33-3.1,6.93,7.57A28.73,28.73,0,0,1,1758.44,51.56Zm-39.39,2.16-9.15-.51A28.7,28.7,0,0,1,1705,39.74l7-7.57,6.36,3.1,4.78,13.6Zm37-34.8-2,9.31-6.46,3.17-11.89-8.66v-8l8.47-4.55A29,29,0,0,1,1756.1,18.92Zm-32.94-8.79,8.47,4.57v8l-11.87,8.66-6.49-3.17-2-9.37A28.9,28.9,0,0,1,1723.16,10.13Zm1.69,54.23-2.59-8.06,4.13-5h14.54l4.06,4.8-4,8.63a28.29,28.29,0,0,1-16.14-.41Z"/><g id="_Group_47" data-name="&lt;Group&gt;"><g id="_Group_48" data-name="&lt;Group&gt;"><path id="_Compound_Path_44" data-name="&lt;Compound Path&gt;" class="cls-5" d="M1974.89,28.06c-.3-.08-.59-.13-.88-.19l-18.39-7.07h-.18c-.38,0-9.6-.6-16.36,10.69-3.89,6.48-5.4,7.24-6.87,8a10,10,0,0,0-3.72,2.92c-3,3.49-11.62,12.2-15.19,15.78a3,3,0,0,0,.58,4.79l10.73,6.47,2.56,4.3a3.06,3.06,0,0,0,1.83,1.45,3,3,0,0,0,2.93-.91l13.16-14,13,6.81a15.43,15.43,0,0,0,5.54,2.84c9.65,2.6,20-4.68,23.15-16.22s-2.2-23-11.85-25.65Zm-28.1,30.42,4.27-4.52a21.82,21.82,0,0,0,2.7,8.19Zm7.64-21.93a32.83,32.83,0,0,1-6.67,8.39,4.33,4.33,0,0,1-4.15.28l-5.18-2.47c-1.19-.56-1.23-1.55-.22-2.38a23.53,23.53,0,0,0,6.07-8.35,2.29,2.29,0,0,1,3-1.25l6.1,2.73a2.1,2.1,0,0,1,1,3Zm0,0"/><path id="_Compound_Path_45" data-name="&lt;Compound Path&gt;" class="cls-5" d="M1912.92,63l2.28,4.2L1926.47,74l-2.23-4Zm0,0"/></g></g><g id="_Group_49" data-name="&lt;Group&gt;"><g id="_Group_50" data-name="&lt;Group&gt;"><path id="_Compound_Path_46" data-name="&lt;Compound Path&gt;" class="cls-5" d="M1857.94,19.28a18.89,18.89,0,0,0-37.77,0,24.64,24.64,0,0,0,.84,5.58h0a53.14,53.14,0,0,0,2.78,7c2.41,5.33,5.14,11.38,5.14,20.82a39,39,0,0,1-4.13,17.62,2.16,2.16,0,0,0,1.9,3.17h24.71a2.16,2.16,0,0,0,1.91-3.17,39,39,0,0,1-4.13-17.62c0-9.44,2.73-15.49,5.14-20.82a54.46,54.46,0,0,0,2.77-7h0a24.06,24.06,0,0,0,.84-5.58ZM1839.06,4.71a14.59,14.59,0,0,1,14.58,14.57,18,18,0,0,1-.49,3.59,6.56,6.56,0,0,0-8.8.26c-2.66-5.55-6-10.78-9.62-11.91a4.94,4.94,0,0,0-4.35.61c-1.71,1.12-3.26,3.77-1.4,8.89h0c.51,1.59-.34,3.27-1.38,3.6-1.21.39-2.52-.74-2.81-2.25a16,16,0,0,1-.31-2.79,14.59,14.59,0,0,1,14.58-14.57Zm1.77,33.59c-.17-5.85-1.77-8.42-4-12l-.3-.48c-5.28-8.5-4.23-10.12-3.79-10.42a.69.69,0,0,1,.69-.09c1.92.6,5.54,5.45,9.31,14.93,0,0,0,0,0,0a6.6,6.6,0,0,0,1.47,2.24,6.51,6.51,0,0,0,4.27,1.91,46.72,46.72,0,0,0-3.63,18.24,43.9,43.9,0,0,0,.77,8.24h-12.21c5.17-9.47,7.59-15.66,7.39-22.63Zm9.67-8.81a2.26,2.26,0,0,1-1.61.67,2.28,2.28,0,0,1,0-4.55,2.27,2.27,0,0,1,1.61,3.88Zm-22.78.6c-.22-.47-.43-.94-.63-1.4h.11a5.65,5.65,0,0,0,1.71-.27,6.16,6.16,0,0,0,2.92-2l1.05,1.72.3.48c2.07,3.31,3.21,5.14,3.34,9.83.12,4-.73,7.79-3.29,13.39-.17-9.87-3.12-16.43-5.51-21.73Zm2.35,39.08c.45-1.12.92-2.44,1.37-3.94h15.24a40.23,40.23,0,0,0,1.37,3.94Zm0,0"/></g></g></g></g></g></g></g></g></g></svg>